Coordinates
version=1
nRows=14
nColumns=38
inDegrees=no

Units are S.I. units (second, meters, Newtons, ...)
If the header above contains a line with 'inDegrees', this indicates whether rotational values are in degrees (yes) or radians (no).

endheader
time	pelvis_tilt	pelvis_list	pelvis_rotation	pelvis_tx	pelvis_ty	pelvis_tz	hip_flexion_r	hip_adduction_r	hip_rotation_r	knee_angle_r	ankle_angle_r	subtalar_angle_r	mtp_angle_r	hip_flexion_l	hip_adduction_l	hip_rotation_l	knee_angle_l	ankle_angle_l	subtalar_angle_l	mtp_angle_l	lumbar_extension	lumbar_bending	lumbar_rotation	arm_flex_r	arm_add_r	arm_rot_r	elbow_flex_r	pro_sup_r	wrist_flex_r	wrist_dev_r	arm_flex_l	arm_add_l	arm_rot_l	elbow_flex_l	pro_sup_l	wrist_flex_l	wrist_dev_l
0.56	-2.06959	1.49894	-2.60226	0.741069	-0.0957488	1.00612	0.610812	-0.217269	-0.131318	1.16306	-0.124721	0	0	0.0360617	0.0815371	-0.184031	0.297245	0.145269	0	0	-0.309307	-0.0843252	0.011347	0.0247546	-0.178765	0.150961	0.364735	1.28609	0	0	0.322578	-0.181923	0.113107	0	1.5708	0	0
0.57	-2.11847	1.50339	-2.55414	0.740965	-0.0873716	1.00627	0.606339	-0.213572	-0.149591	1.1134	-0.109812	0	0	0.0238555	0.0765831	-0.180268	0.29286	0.150833	0	0	-0.313767	-0.0780891	0.0128861	0.0297882	-0.180882	0.154631	0.363513	1.28214	0	0	0.327373	-0.179497	0.117555	0	1.5708	0	0
0.58	-2.18057	1.50751	-2.49168	0.740833	-0.0787697	1.00634	0.598026	-0.21087	-0.172262	1.05922	-0.0941318	0	0	0.0115364	0.0709583	-0.177039	0.289853	0.155813	0	0	-0.318395	-0.0713237	0.0136873	0.0343483	-0.182996	0.158908	0.362025	1.27746	0	0	0.331333	-0.177136	0.12074	0	1.5708	0	0
0.59	-2.26665	1.52454	-2.40341	0.740664	-0.0698116	1.00486	0.594967	-0.198492	-0.204058	1.00273	-0.0779623	0	0	0.00881138	0.0547265	-0.16634	0.289971	0.167339	0	0	-0.311384	-0.0526556	0.0168755	0.0335483	-0.188523	0.16651	0.365477	1.26989	0	0	0.331519	-0.172983	0.124532	0	1.5708	0	0
0.6	-2.39159	1.52897	-2.27618	0.740513	-0.0608456	1.00475	0.581403	-0.195402	-0.235795	0.942018	-0.0621071	0	0	-0.00252895	0.0472003	-0.161773	0.288747	0.173004	0	0	-0.315176	-0.0440004	0.0173048	0.0358187	-0.191699	0.174383	0.366734	1.25969	0	0	0.334024	-0.170644	0.126762	0	1.5708	0	0
0.61	-2.54147	1.53236	-2.12308	0.740273	-0.0517322	1.00461	0.56546	-0.19235	-0.270652	0.878558	-0.0453984	0	0	-0.0139601	0.039486	-0.158591	0.287568	0.179154	0	0	-0.318948	-0.0351766	0.0171606	0.0375233	-0.194942	0.18061	0.368233	1.25059	0	0	0.336157	-0.1682	0.127131	0	1.5708	0	0
0.62	-2.75828	1.5339	-1.90138	0.740097	-0.0423224	1.00451	0.545334	-0.18786	-0.310904	0.812451	-0.0296911	0	0	-0.0267851	0.0298849	-0.154836	0.287023	0.185831	0	0	-0.323632	-0.0248393	0.016256	0.0385387	-0.197674	0.184284	0.36947	1.24383	0	0	0.337631	-0.166054	0.126738	0	1.5708	0	0
0.63	-3.01781	1.53325	-1.63664	0.740118	-0.032732	1.00443	0.522939	-0.180177	-0.354043	0.744221	-0.0158421	0	0	-0.0400868	0.0183514	-0.15132	0.286741	0.193566	0	0	-0.328634	-0.0132771	0.0160897	0.0391082	-0.200188	0.186667	0.370231	1.23949	0	0	0.338767	-0.164216	0.127304	0	1.5708	0	0
0.64	3.04475	1.53217	-1.41177	0.740375	-0.0230168	1.00409	0.503454	-0.170406	-0.393719	0.677348	-0.00424537	0	0	-0.0515067	0.00748514	-0.149179	0.286479	0.201502	0	0	-0.331308	-0.00319856	0.0170203	0.0391045	-0.202101	0.187411	0.370032	1.23804	0	0	0.339293	-0.162735	0.127173	0	1.5708	0	0
0.65	2.85433	1.53009	-1.21732	0.740794	-0.0131348	1.00355	0.485856	-0.1589	-0.429145	0.613322	0.00639511	0	0	-0.0629708	-0.00312897	-0.148167	0.285423	0.209044	0	0	-0.33294	0.00596048	0.0182457	0.0384795	-0.203738	0.187855	0.369522	1.23673	0	0	0.339575	-0.161535	0.127416	0	1.5708	0	0
0.66	2.66976	1.52506	-1.02784	0.741324	-0.00303226	1.00302	0.466593	-0.143757	-0.462417	0.549511	0.015227	0	0	-0.0757139	-0.0161368	-0.147887	0.284646	0.216798	0	0	-0.335302	0.0168449	0.0192752	0.0373578	-0.205323	0.188256	0.369046	1.23537	0	0	0.339554	-0.160406	0.127906	0	1.5708	0	0
0.67	2.5264	1.51773	-0.879574	0.742016	0.00726904	1.00247	0.447378	-0.125963	-0.49129	0.488738	0.0216465	0	0	-0.0894847	-0.030167	-0.147488	0.284042	0.225601	0	0	-0.338203	0.0282555	0.0207339	0.0357276	-0.206771	0.188821	0.368885	1.23354	0	0	0.339256	-0.159275	0.128356	0	1.5708	0	0
0.68	2.40727	1.50626	-0.755045	0.742849	0.0176903	1.00208	0.424967	-0.101574	-0.512385	0.425374	0.0226466	0	0	-0.105188	-0.0479071	-0.147388	0.283449	0.235709	0	0	-0.343088	0.0428958	0.0225593	0.0345149	-0.208468	0.190115	0.3685	1.23034	0	0	0.338762	-0.157915	0.128615	0	1.5708	0	0
0.69	2.38096	1.50575	-0.722968	0.743429	0.0286959	1.00064	0.411949	-0.0842977	-0.500226	0.369175	0.0261713	0	0	-0.117341	-0.0523354	-0.143498	0.28078	0.242351	0	0	-0.339665	0.0454665	0.0204664	0.0299192	-0.207873	0.190245	0.3675	1.22778	0	0	0.335948	-0.158116	0.128726	0	1.5708	0	0
